0
SECTION
2
HEADER
9
$INSUNITS
70
4
9
$ACADVER
1
AC1014
9
$HANDSEED
5
FFFF
0
ENDSEC
0
SECTION
2
TABLES
0
TABLE
2
VPORT
5
8
100
AcDbSymbolTable
0
ENDTAB
0
TABLE
2
LTYPE
5
5
100
AcDbSymbolTable
0
LTYPE
5
14
100
AcDbSymbolTableRecord
100
AcDbLinetypeTableRecord
2
BYBLOCK
70
0
0
LTYPE
5
15
100
AcDbSymbolTableRecord
100
AcDbLinetypeTableRecord
2
BYLAYER
70
0
0
ENDTAB
0
TABLE
2
LAYER
5
2
100
AcDbSymbolTable
70
2
0
LAYER
5
50
100
AcDbSymbolTableRecord
100
AcDbLayerTableRecord
2
0
70
0
6
CONTINUOUS
0
ENDTAB
0
TABLE
2
STYLE
5
3
100
AcDbSymbolTable
70
1
0
STYLE
5
11
100
AcDbSymbolTableRecord
100
AcDbTextStyleTableRecord
2
STANDARD
70
0
0
ENDTAB
0
TABLE
2
VIEW
5
6
100
AcDbSymbolTable
70
0
0
ENDTAB
0
TABLE
2
UCS
5
7
100
AcDbSymbolTable
70
0
0
ENDTAB
0
TABLE
2
APPID
5
9
100
AcDbSymbolTable
70
2
0
APPID
5
12
100
AcDbSymbolTableRecord
100
AcDbRegAppTableRecord
2
ACAD
70
0
0
ENDTAB
0
TABLE
2
DIMSTYLE
5
A
100
AcDbSymbolTable
70
1
0
ENDTAB
0
TABLE
2
BLOCK_RECORD
5
1
100
AcDbSymbolTable
70
1
0
BLOCK_RECORD
5
1F
100
AcDbSymbolTableRecord
100
AcDbBlockTableRecord
2
*MODEL_SPACE
0
BLOCK_RECORD
5
1B
100
AcDbSymbolTableRecord
100
AcDbBlockTableRecord
2
*PAPER_SPACE
0
ENDTAB
0
ENDSEC
0
SECTION
2
BLOCKS
0
BLOCK
5
20
100
AcDbEntity
100
AcDbBlockBegin
2
*MODEL_SPACE
0
ENDBLK
5
21
100
AcDbEntity
100
AcDbBlockEnd
0
BLOCK
5
1C
100
AcDbEntity
100
AcDbBlockBegin
2
*PAPER_SPACE
0
ENDBLK
5
1D
100
AcDbEntity
100
AcDbBlockEnd
0
ENDSEC
0
SECTION
2
ENTITIES
0
LWPOLYLINE
5
100
100
AcDbEntity
8
0
100
AcDbPolyline
90
8
70
1
43
0.0
10
-282.17500000000007
20
21.404769326722018
10
-270.27500000000003
20
21.404769326722032
42
-0.41421356237313522
10
-269.72500000000002
20
20.854769326722028
10
-269.72500000000002
20
19.45476932672203
42
-0.41421356237313289
10
-270.27500000000003
20
18.904769326722032
10
-282.17500000000007
20
18.904769326722036
42
-0.41421356237313173
10
-282.72500000000002
20
19.45476932672203
10
-282.72500000000002
20
20.854769326722028
42
-0.41421356237313522
0
LWPOLYLINE
5
101
100
AcDbEntity
8
0
100
AcDbPolyline
90
8
70
1
43
0.0
10
-16.025000000000027
20
19.45476932672203
42
0.41421356237309742
10
-15.475000000000028
20
18.904769326722032
10
-3.5750000000000197
20
18.904769326722032
42
0.41421356237309559
10
-3.0250000000000203
20
19.45476932672203
10
-3.0250000000000199
20
20.854769326722028
42
0.4142135623730927
10
-3.5750000000000193
20
21.404769326722032
10
-15.475000000000028
20
21.404769326722032
42
0.4142135623730927
10
-16.025000000000031
20
20.854769326722035
0
LWPOLYLINE
5
102
100
AcDbEntity
8
0
100
AcDbPolyline
90
8
70
1
43
0.0
10
-251.86250000000001
20
21.404769326722018
10
-195.51279861864651
20
21.404769326722032
42
-0.41421356237313522
10
-194.9627986186465
20
20.854769326722028
10
-194.9627986186465
20
19.45476932672203
42
-0.41421356237313289
10
-195.51279861864651
20
18.904769326722032
10
-251.86250000000001
20
18.904769326722036
42
-0.41421356237313173
10
-252.41250000000002
20
19.45476932672203
10
-252.41250000000002
20
20.854769326722028
42
-0.41421356237313522
0
LWPOLYLINE
5
103
100
AcDbEntity
8
0
100
AcDbPolyline
90
8
70
1
43
0.0
10
-337.58749999999998
20
21.404769326722
10
-300.58750000000003
20
21.404769326722032
42
-0.41421356237313522
10
-300.03750000000002
20
20.854769326722028
10
-300.03750000000002
20
19.45476932672203
42
-0.41421356237313289
10
-300.58750000000003
20
18.904769326722032
10
-337.58749999999998
20
18.904769326722111
42
-0.414213562373205
10
-338.13749999999999
20
19.45476932672203
10
-338.13750000000005
20
20.854769326722028
42
-0.41421356237320617
0
LWPOLYLINE
5
104
100
AcDbEntity
8
0
100
AcDbPolyline
90
8
70
1
43
0.0
10
-89.937499999999986
20
21.404769326722025
10
-33.587798618646474
20
21.404769326722032
42
-0.41421356237308321
10
-33.037798618646477
20
20.854769326722028
10
-33.037798618646477
20
19.45476932672203
42
-0.4142135623730927
10
-33.587798618646474
20
18.904769326722029
10
-89.937499999999986
20
18.90476932672204
42
-0.41421356237309154
10
-90.487499999999983
20
19.45476932672203
10
-90.487499999999983
20
20.854769326722028
42
-0.4142135623730927
0
LWPOLYLINE
5
105
100
AcDbEntity
8
0
100
AcDbPolyline
90
8
70
1
43
0.0
10
-170.90000000000001
20
21.404769326722018
10
-114.55029861864648
20
21.404769326722022
42
-0.4142135623730927
10
-114.0002986186465
20
20.854769326722028
10
-114.0002986186465
20
19.45476932672203
42
-0.4142135623730927
10
-114.55029861864648
20
18.904769326722036
10
-170.90000000000001
20
18.904769326722036
42
-0.41421356237313173
10
-171.44999999999999
20
19.45476932672203
10
-171.44999999999999
20
20.854769326722028
42
-0.41421356237313522
0
LWPOLYLINE
5
106
100
AcDbEntity
8
0
100
AcDbPolyline
90
8
70
1
43
0.0
10
-287.93125000000009
20
25.561019326722032
42
0.41421356237313056
10
-287.38125000000008
20
26.11101932672204
10
-287.38125000000008
20
114.21101932672204
42
0.41421356237311396
10
-287.93125000000009
20
114.76101932672206
10
-288.33125000000001
20
114.76101932672206
42
0.41421356237311396
10
-288.88125000000008
20
114.21101932672204
10
-288.88125000000008
20
26.111019326722037
42
0.41421356237313522
10
-288.33125000000007
20
25.561019326722047
0
ARC
5
107
100
AcDbEntity
8
0
100
AcDbCircle
10
-320.19772102394421
20
63.439458714761045
30
0
40
0.15000000000000335
210
0
220
0
230
1
100
AcDbArc
50
143.79702267660358
51
270
0
LINE
5
108
100
AcDbEntity
8
0
100
AcDbLine
10
-320.19772102394421
20
63.289458714761047
30
0
11
-315.78090049933627
21
63.289458714761082
31
0
0
ARC
5
109
100
AcDbEntity
8
0
100
AcDbCircle
10
-315.78090049933627
20
63.139458714761076
30
0
40
0.15000000000000568
210
0
220
-0
230
1
100
AcDbArc
50
0
51
90
0
LINE
5
110
100
AcDbEntity
8
0
100
AcDbLine
10
-315.63090049933624
20
63.139458714761076
30
0
11
-315.63090049933624
21
62.254123731298463
31
0
0
LINE
5
111
100
AcDbEntity
8
0
100
AcDbLine
10
-315.63090049933624
20
62.254123731298463
30
0
11
-322.33289426093938
21
62.254123731298456
31
0
0
ARC
5
112
100
AcDbEntity
8
0
100
AcDbCircle
10
-322.33289426093938
20
62.404123731298462
30
0
40
0.15000000000001257
210
0
220
0
230
1
100
AcDbArc
50
143.834582857843
51
270
0
LINE
5
113
100
AcDbEntity
8
0
100
AcDbLine
10
-322.4539917577934
20
62.492641504969619
30
0
11
-317.61648939059347
21
69.110627965739326
31
0
0
ARC
5
114
100
AcDbEntity
8
0
100
AcDbCircle
10
-317.73758688744743
20
69.199145739410511
30
0
40
0.15000000000002828
210
-0
220
0
230
1
100
AcDbArc
50
-36.165417142178541
51
90
0
LINE
5
115
100
AcDbEntity
8
0
100
AcDbLine
10
-317.73758688744743
20
69.349145739410503
30
0
11
-322.47833794114314
21
69.349145739410503
31
0
0
ARC
5
116
100
AcDbEntity
8
0
100
AcDbCircle
10
-322.47833794114314
20
69.499145739410508
30
0
40
0.15000000000000568
210
0
220
0
230
1
100
AcDbArc
50
180
51
270
0
LINE
5
117
100
AcDbEntity
8
0
100
AcDbLine
10
-322.62833794114317
20
69.499145739410508
30
0
11
-322.62833794114317
21
70.23448108604471
31
0
0
ARC
5
118
100
AcDbEntity
8
0
100
AcDbCircle
10
-322.47833794114314
20
70.23448108604471
30
0
40
0.1499999999999968
210
0
220
-0
230
1
100
AcDbArc
50
90
51
180
0
LINE
5
119
100
AcDbEntity
8
0
100
AcDbLine
10
-322.47833794114314
20
70.384481086044701
30
0
11
-319.74849551833307
21
70.384481086044701
31
0
0
ARC
5
120
100
AcDbEntity
8
0
100
AcDbCircle
10
-319.74849551833313
20
70.534481086044721
30
0
40
0.15000000000002345
210
0
220
0
230
1
100
AcDbArc
50
270.00000000002166
51
360
0
LINE
5
121
100
AcDbEntity
8
0
100
AcDbLine
10
-319.5984955183331
20
70.534481086044693
30
0
11
-319.5984955183331
21
76.108577234583791
31
0
0
SPLINE
5
122
100
AcDbEntity
8
0
100
AcDbSpline
70
0
71
3
72
10
73
6
74
0
42
0.000000001
43
0.0000000001
44
0.0000000001
40
0
40
0
40
0
40
0
40
0.095255387428207605
40
0.095255387428207605
40
0.16304709891952002
40
0.16304709891952002
40
0.16304709891952002
40
0.16304709891952002
10
-319.5984955183331
20
76.108577234583791
30
0
10
-319.5984955183331
20
76.426095192677806
30
0
10
-319.58474761514032
20
76.769270880261502
30
0
10
-319.5105047461318
20
77.308690953754663
30
0
10
-319.45920859983391
20
77.558429053629595
30
0
10
-319.37000757242794
20
77.767494160992385
30
0
0
SPLINE
5
123
100
AcDbEntity
8
0
100
AcDbSpline
70
0
71
3
72
10
73
6
74
0
42
0.000000001
43
0.0000000001
44
0.0000000001
40
0
40
0
40
0
40
0
40
0.057486184455841527
40
0.057486184455841527
40
0.11596957335822949
40
0.11596957335822949
40
0.11596957335822949
40
0.11596957335822949
10
-319.37000757242794
20
77.767494160992385
30
0
10
-319.29480829097798
20
77.943742644974449
30
0
10
-319.19543443085445
20
78.105447209697132
30
0
10
-318.94322685419093
20
78.398372339344348
30
0
10
-318.79480180245417
20
78.522857115415334
30
0
10
-318.6298021563473
20
78.626702913561402
30
0
0
SPLINE
5
124
100
AcDbEntity
8
0
100
AcDbSpline
70
0
71
3
72
10
73
6
74
0
42
0.000000001
43
0.0000000001
44
0.0000000001
40
0
40
0
40
0
40
0
40
0.061966439284977554
40
0.061966439284977554
40
0.12956511927536257
40
0.12956511927536257
40
0.12956511927536257
40
0.12956511927536257
10
-318.6298021563473
20
78.626702913561402
30
0
10
-318.45498822821935
20
78.736725524650723
30
0
10
-318.26591128101632
20
78.81561609388082
30
0
10
-317.84796071709889
20
78.924488927578963
30
0
10
-317.62224309268998
20
78.948013883206499
30
0
10
-317.39692035595004
20
78.948013883206499
30
0
0
SPLINE
5
125
100
AcDbEntity
8
0
100
AcDbSpline
70
0
71
3
72
10
73
6
74
0
42
0.000000001
43
0.0000000001
44
0.0000000001
40
0
40
0
40
0
40
0
40
0.013781227361832609
40
0.013781227361832609
40
0.025590608694961929
40
0.025590608694961929
40
0.025590608694961929
40
0.025590608694961929
10
-317.39692035595004
20
78.948013883206499
30
0
10
-317.35098293141061
20
78.948013883206499
30
0
10
-317.29199921338557
20
78.943336125412273
30
0
10
-317.20839341600595
20
78.935448779224501
30
0
10
-317.16748477166738
20
78.930936638670289
30
0
10
-317.12677843462535
20
78.926063679605363
30
0
0
SPLINE
5
126
100
AcDbEntity
8
0
100
AcDbSpline
70
0
71
3
72
14
73
10
74
0
42
0.000000001
43
0.0000000001
44
0.0000000001
40
0
40
0
40
0
40
0
40
0.0058596671008040967
40
0.0058596671008040967
40
0.011719334201609102
40
0.011719334201609102
40
0.015301941343988613
40
0.015301941343988613
40
0.018884548486373338
40
0.018884548486373338
40
0.018884548486373338
40
0.018884548486373338
10
-316.99747089793033
20
78.806295115103438
30
0
10
-317.00126901214821
20
78.825454501572153
30
0
10
-317.00877306854272
20
78.843688857699291
30
0
10
-317.03034830401924
20
78.876254794811743
30
0
10
-317.0442132120906
20
78.890275027688432
30
0
10
-317.07025632973421
20
78.907949423793085
30
0
10
-317.08090324049243
20
78.913451517950392
30
0
10
-317.10327552797935
20
78.921813843172572
30
0
10
-317.11492106960657
20
78.924644233431792
30
0
10
-317.12677843462541
20
78.926063679605377
30
0
0
LINE
5
127
100
AcDbEntity
8
0
100
AcDbLine
10
-316.99747089793033
20
78.806295115103438
30
0
11
-316.83979814719129
21
78.010923255883029
31
0
0
ARC
5
128
100
AcDbEntity
8
0
100
AcDbCircle
10
-316.98693490022868
20
77.981755192772354
30
0
40
0.1499999999999968
210
-0
220
0
230
1
100
AcDbArc
50
-90
51
11.212815199339515
0
LINE
5
129
100
AcDbEntity
8
0
100
AcDbLine
10
-316.98693490022868
20
77.831755192772349
30
0
11
-317.10179042539653
21
77.831755192772349
31
0
0
SPLINE
5
130
100
AcDbEntity
8
0
100
AcDbSpline
70
0
71
3
72
10
73
6
74
0
42
0.000000001
43
0.0000000001
44
0.0000000001
40
0
40
0
40
0
40
0
40
0.043383805158793795
40
0.043383805158793795
40
0.076311322608513865
40
0.076311322608513865
40
0.076311322608513865
40
0.076311322608513865
10
-317.10179042539653
20
77.831755192772349
30
0
10
-317.24640310925918
20
77.831755192772349
30
0
10
-317.39966656020886
20
77.824134105117139
30
0
10
-317.65126083873747
20
77.78416127121875
30
0
10
-317.76570683505446
20
77.75635838649454
30
0
10
-317.86579665404349
20
77.71037162975874
30
0
0
SPLINE
5
131
100
AcDbEntity
8
0
100
AcDbSpline
70
0
71
3
72
10
73
6
74
0
42
0.000000001
43
0.0000000001
44
0.0000000001
40
0
40
0
40
0
40
0
40
0.029551340150896829
40
0.029551340150896829
40
0.061706290860760044
40
0.061706290860760044
40
0.061706290860760044
40
0.061706290860760044
10
-317.86579665404349
20
77.71037162975874
30
0
10
-317.95530553756589
20
77.669246335559819
30
0
10
-318.03414084228615
20
77.61280580344517
30
0
10
-318.17774243376891
20
77.465537564569303
30
0
10
-318.23720372825477
20
77.375655656961854
30
0
10
-318.28469110047905
20
77.279577503383166
30
0
0
SPLINE
5
132
100
AcDbEntity
8
0
100
AcDbSpline
70
0
71
3
72
10
73
6
74
0
42
0.000000001
43
0.0000000001
44
0.0000000001
40
0
40
0
40
0
40
0
40
0.023632202998050297
40
0.023632202998050297
40
0.10222259467281021
40
0.10222259467281021
40
0.10222259467281021
40
0.10222259467281021
10
-318.28469110047905
20
77.279577503383166
30
0
10
-318.31991990872018
20
77.209119886900879
30
0
10
-318.34508348889551
20
77.119688393066369
30
0
10
-318.42471609332318
20
76.739616772554641
30
0
10
-318.43939638216006
20
76.328965002489113
30
0
10
-318.43939638216006
20
75.9729123124186
30
0
0
LINE
5
133
100
AcDbEntity
8
0
100
AcDbLine
10
-318.43939638216006
20
75.9729123124186
30
0
11
-318.43775323760275
21
70.53443576606027
31
0
0
ARC
5
134
100
AcDbEntity
8
0
100
AcDbCircle
10
-318.28775324444899
20
70.534481086044721
30
0
40
0.15000000000005007
210
0
220
0
230
1
100
AcDbArc
50
180.01731095918163
51
269.99999999997829
0
LINE
5
135
100
AcDbEntity
8
0
100
AcDbLine
10
-318.28775324444905
20
70.384481086044673
30
0
11
-315.59575381574064
21
70.384481086044701
31
0
0
ARC
5
136
100
AcDbEntity
8
0
100
AcDbCircle
10
-315.59575381574064
20
70.23448108604471
30
0
40
0.15000000000000052
210
-0
220
0
230
1
100
AcDbArc
50
-36.202977323370433
51
90
0
LINE
5
137
100
AcDbEntity
8
0
100
AcDbLine
10
-315.4747143726259
20
70.145883946076893
30
0
11
-320.31876046705889
21
63.528055854728905
31
0
0
LWPOLYLINE
5
138
100
AcDbEntity
8
0
100
AcDbPolyline
90
8
70
1
43
0.0
10
-333.13750000000005
20
93.71101932672201
10
-333.13749999999999
20
84.71101932672201
42
-0.41421356237309503
10
-333.63749999999993
20
84.21101932672201
10
-342.63749999999987
20
84.211019326722067
42
-0.41421356237309503
10
-343.13749999999982
20
84.711019326722038
10
-343.13749999999999
20
93.711019326722024
42
-0.41421356237309503
10
-342.63749999999993
20
94.211019326722024
10
-333.63750000000005
20
94.211019326721981
42
-0.41421356237309503
0
LWPOLYLINE
5
139
100
AcDbEntity
8
0
100
AcDbPolyline
90
8
70
1
43
0.0
10
-97.843999999999994
20
104.52200166893007
10
-127.25594870293867
20
104.52200166893007
42
-0.41421356237309503
10
-127.75594870293867
20
105.02200166893007
10
-127.75594870293867
20
111.50000166893008
42
-0.41421356237309503
10
-127.25594870293867
20
112.00000166893008
10
-97.843999999999994
20
112.00000166893007
42
-0.41421356237309503
10
-97.343999999999994
20
111.50000166893007
10
-97.343999999999994
20
105.02200166893007
42
-0.41421356237309503
0
LWPOLYLINE
5
140
100
AcDbEntity
8
0
100
AcDbPolyline
90
8
70
1
43
0.0
10
-242.65000000000001
20
112.76101932672204
10
-242.65000000000001
20
103.76101932672201
42
-0.41421356237309503
10
-243.15000000000001
20
103.26101932672201
10
-252.15000000000003
20
103.26101932672202
42
-0.41421356237309503
10
-252.65000000000003
20
103.76101932672202
10
-252.65000000000001
20
112.76101932672205
42
-0.41421356237309503
10
-252.15000000000001
20
113.26101932672205
10
-243.14999999999998
20
113.26101932672201
42
-0.41421356237309503
0
LWPOLYLINE
5
141
100
AcDbEntity
8
0
100
AcDbPolyline
90
8
70
1
43
0.0
10
-295.03750000000002
20
93.711019326722038
10
-295.03750000000002
20
84.71101932672201
42
-0.41421356237309503
10
-295.53750000000002
20
84.21101932672201
10
-304.53750000000002
20
84.211019326722024
42
-0.41421356237309503
10
-305.03750000000002
20
84.711019326722038
10
-305.03750000000002
20
93.711019326722038
42
-0.41421356237309503
10
-304.53750000000002
20
94.211019326722038
10
-295.53750000000002
20
94.21101932672201
42
-0.41421356237309503
0
LWPOLYLINE
5
142
100
AcDbEntity
8
0
100
AcDbPolyline
90
8
70
1
43
0.0
10
-158.49405129706136
20
104.52200166893007
10
-187.90600000000001
20
104.52200166893007
42
-0.41421356237309503
10
-188.40600000000001
20
105.02200166893007
10
-188.40600000000001
20
111.50000166893008
42
-0.41421356237309503
10
-187.90600000000001
20
112.00000166893008
10
-158.49405129706133
20
112.00000166893007
42
-0.41421356237309503
10
-157.99405129706133
20
111.50000166893007
10
-157.99405129706136
20
105.02200166893007
42
-0.41421356237309503
0
LWPOLYLINE
5
143
100
AcDbEntity
8
0
100
AcDbPolyline
90
8
70
1
43
0.0
10
-33.09999999999998
20
112.76101932672204
10
-33.099999999999966
20
103.76101932672201
42
-0.41421356237309503
10
-33.59999999999998
20
103.26101932672201
10
-42.599999999999994
20
103.26101932672202
42
-0.41421356237309503
10
-43.099999999999994
20
103.76101932672202
10
-43.100000000000009
20
112.76101932672205
42
-0.41421356237309503
10
-42.599999999999994
20
113.26101932672205
10
-33.599999999999994
20
113.26101932672204
42
-0.41421356237309503
0
LWPOLYLINE
5
144
100
AcDbEntity
8
0
100
AcDbPolyline
90
8
70
1
43
0.0
10
-169.21250000000001
20
76.661019326722041
10
-169.21249999999998
20
63.661019326722027
42
-0.41421356237307422
10
-169.71250000000001
20
63.161019326722034
10
-182.71250000000003
20
63.161019326722041
42
-0.41421356237312623
10
-183.21250000000003
20
63.661019326722027
10
-183.21249999999998
20
76.661019326722041
42
-0.4142135623730222
10
-182.71250000000003
20
77.161019326722041
10
-169.71250000000001
20
77.161019326722041
42
-0.41421356237313667
0
LWPOLYLINE
5
145
100
AcDbEntity
8
0
100
AcDbPolyline
90
8
70
1
43
0.0
10
-188.26249999999999
20
76.661019326722041
10
-188.26250000000002
20
63.661019326722027
42
-0.4142135623730222
10
-188.76249999999999
20
63.161019326722034
10
-201.76249999999999
20
63.161019326722027
42
-0.41421356237313667
10
-202.26249999999999
20
63.661019326722027
10
-202.26250000000005
20
76.661019326722041
42
-0.41421356237307422
10
-201.76249999999999
20
77.161019326722041
10
-188.76249999999999
20
77.161019326722027
42
-0.41421356237312623
0
LWPOLYLINE
5
146
100
AcDbEntity
8
0
100
AcDbPolyline
90
8
70
1
43
0.0
10
-207.3125
20
76.661019326722041
10
-207.31250000000003
20
63.661019326722027
42
-0.4142135623730222
10
-207.8125
20
63.161019326722034
10
-220.8125
20
63.161019326722027
42
-0.41421356237313667
10
-221.3125
20
63.661019326722027
10
-221.31250000000006
20
76.661019326722041
42
-0.41421356237307422
10
-220.8125
20
77.161019326722041
10
-207.8125
20
77.161019326722027
42
-0.41421356237312623
0
LWPOLYLINE
5
147
100
AcDbEntity
8
0
100
AcDbPolyline
90
8
70
1
43
0.0
10
-226.36250000000001
20
76.661019326722041
10
-226.36250000000004
20
63.661019326722027
42
-0.4142135623730222
10
-226.86250000000001
20
63.161019326722034
10
-239.86250000000001
20
63.161019326722027
42
-0.41421356237313667
10
-240.36250000000001
20
63.661019326722027
10
-240.36250000000007
20
76.661019326722041
42
-0.41421356237307422
10
-239.86250000000001
20
77.161019326722041
10
-226.86250000000001
20
77.161019326722027
42
-0.41421356237312623
0
LWPOLYLINE
5
148
100
AcDbEntity
8
0
100
AcDbPolyline
90
8
70
1
43
0.0
10
-248.63075000000003
20
75.661019326722027
10
-248.63075000000006
20
61.661019326722041
42
-0.41421356237309503
10
-249.13075000000006
20
61.161019326722027
10
-255.63074999999998
20
61.161019326722027
42
-0.41421356237309503
10
-256.13074999999998
20
61.661019326722041
10
-256.13075000000003
20
75.661019326722041
42
-0.41421356237309503
10
-255.63075000000001
20
76.161019326722041
10
-249.13075000000003
20
76.161019326722041
42
-0.41421356237309503
0
LWPOLYLINE
5
149
100
AcDbEntity
8
0
100
AcDbPolyline
90
8
70
1
43
0.0
10
-187.97499999999999
20
25.561019326722032
10
-187.97499999999999
20
38.56101932672204
42
-0.41421356237312101
10
-187.47499999999999
20
39.061019326722025
10
-174.47500000000002
20
39.061019326722018
42
-0.41421356237313145
10
-173.97500000000002
20
38.561019326722025
10
-173.97499999999997
20
25.561019326722032
42
-0.41421356237307683
10
-174.47500000000002
20
25.061019326722036
10
-187.47499999999999
20
25.061019326722036
42
-0.41421356237313145
0
LWPOLYLINE
5
150
100
AcDbEntity
8
0
100
AcDbPolyline
90
8
70
1
43
0.0
10
-193.02500000000003
20
38.56101932672204
10
-193.02499999999998
20
25.561019326722032
42
-0.41421356237307683
10
-193.52500000000003
20
25.061019326722036
10
-206.52500000000003
20
25.061019326722018
42
-0.41421356237310025
10
-207.02500000000003
20
25.561019326722032
10
-207.02500000000009
20
38.56101932672204
42
-0.41421356237311063
10
-206.52500000000003
20
39.061019326722025
10
-193.52500000000003
20
39.061019326722018
42
-0.41421356237312101
0
LWPOLYLINE
5
151
100
AcDbEntity
8
0
100
AcDbPolyline
90
8
70
1
43
0.0
10
-212.07499999999999
20
38.56101932672204
10
-212.07499999999999
20
25.561019326722032
42
-0.41421356237304563
10
-212.57499999999999
20
25.061019326722036
10
-225.57500000000002
20
25.061019326722036
42
-0.41421356237313145
10
-226.07500000000002
20
25.561019326722032
10
-226.07500000000002
20
38.56101932672204
42
-0.41421356237312101
10
-225.57500000000002
20
39.061019326722025
10
-212.57499999999999
20
39.06101932672204
42
-0.41421356237308982
0
LWPOLYLINE
5
152
100
AcDbEntity
8
0
100
AcDbPolyline
90
8
70
1
43
0.0
10
-251.51200000000003
20
26.061019326722032
10
-258.01199999999994
20
26.061019326722032
42
-0.41421356237309503
10
-258.51199999999994
20
26.56101932672204
10
-258.512
20
40.561019326722032
42
-0.41421356237309503
10
-258.012
20
41.061019326722032
10
-251.51200000000003
20
41.061019326722032
42
-0.41421356237309503
10
-251.01200000000003
20
40.561019326722025
10
-251.01200000000003
20
26.561019326722032
42
-0.41421356237309503
0
LWPOLYLINE
5
153
100
AcDbEntity
8
0
100
AcDbPolyline
90
8
70
1
43
0.0
10
-116.53750000000002
20
82.711019326722024
10
-116.53750000000001
20
95.711019326722052
42
-0.4142135623730534
10
-116.03749999999999
20
96.211019326722052
10
-103.03750000000001
20
96.211019326722052
42
-0.41421356237307422
10
-102.53749999999999
20
95.711019326722052
10
-102.53749999999999
20
82.711019326722024
42
-0.41421356237309503
10
-103.03750000000001
20
82.21101932672201
10
-116.03749999999998
20
82.211019326721996
42
-0.4142135623730846
0
LWPOLYLINE
5
154
100
AcDbEntity
8
0
100
AcDbPolyline
90
8
70
1
43
0.0
10
-97.487500000000011
20
82.711019326722024
10
-97.487500000000011
20
95.711019326722052
42
-0.41421356237307422
10
-96.987500000000011
20
96.211019326722052
10
-83.987499999999997
20
96.211019326722052
42
-0.41421356237307422
10
-83.487499999999983
20
95.711019326722052
10
-83.487499999999983
20
82.711019326722024
42
-0.41421356237309503
10
-83.987499999999997
20
82.21101932672201
10
-96.987500000000011
20
82.21101932672201
42
-0.41421356237309503
0
LWPOLYLINE
5
155
100
AcDbEntity
8
0
100
AcDbPolyline
90
8
70
1
43
0.0
10
-78.4375
20
82.711019326722024
10
-78.437500000000014
20
95.711019326722052
42
-0.41421356237307422
10
-77.9375
20
96.211019326722052
10
-64.937499999999986
20
96.211019326722038
42
-0.41421356237309503
10
-64.4375
20
95.711019326722052
10
-64.437499999999986
20
82.711019326722024
42
-0.41421356237310025
10
-64.9375
20
82.21101932672201
10
-77.9375
20
82.21101932672201
42
-0.41421356237309503
0
LWPOLYLINE
5
156
100
AcDbEntity
8
0
100
AcDbPolyline
90
8
70
1
43
0.0
10
-59.387499999999989
20
82.711019326722024
10
-59.387500000000017
20
95.711019326722052
42
-0.41421356237307422
10
-58.88750000000001
20
96.211019326722052
10
-45.88750000000001
20
96.211019326722038
42
-0.41421356237310542
10
-45.387500000000003
20
95.711019326722052
10
-45.387499999999996
20
82.711019326722024
42
-0.41421356237309503
10
-45.887500000000003
20
82.21101932672201
10
-58.887500000000017
20
82.211019326722038
42
-0.4142135623730846
0
LWPOLYLINE
5
157
100
AcDbEntity
8
0
100
AcDbPolyline
90
8
70
1
43
0.0
10
-37.119250000000008
20
83.711019326722038
10
-37.119250000000001
20
97.711019326722024
42
-0.41421356237309503
10
-36.619249999999994
20
98.211019326722038
10
-30.119250000000001
20
98.211019326722038
42
-0.41421356237309503
10
-29.619250000000005
20
97.711019326722024
10
-29.619250000000005
20
83.711019326722038
42
-0.41421356237309503
10
-30.119250000000012
20
83.211019326722038
10
-36.619250000000001
20
83.211019326722038
42
-0.41421356237309503
0
LWPOLYLINE
5
158
100
AcDbEntity
8
0
100
AcDbPolyline
90
8
70
1
43
0.0
10
-121.58750000000001
20
95.711019326722052
10
-121.58750000000001
20
82.711019326722024
42
-0.41421356237309503
10
-122.08750000000002
20
82.21101932672201
10
-135.08749999999998
20
82.21101932672201
42
-0.4142135623730846
10
-135.58750000000001
20
82.711019326722024
10
-135.58750000000001
20
95.711019326722052
42
-0.4142135623730534
10
-135.08750000000001
20
96.211019326722052
10
-122.08750000000002
20
96.211019326722052
42
-0.41421356237307422
0
LWPOLYLINE
5
159
100
AcDbEntity
8
0
100
AcDbPolyline
90
8
70
1
43
0.0
10
-13.243249999999982
20
83.711019326722038
10
-13.24325
20
97.711019326722024
42
-0.41421356237309503
10
-12.743249999999993
20
98.211019326722038
10
-6.2432499999999997
20
98.211019326722038
42
-0.41421356237309503
10
-5.7432499999999997
20
97.711019326722024
10
-5.7432499999999997
20
83.711019326722038
42
-0.41421356237309503
10
-6.2432500000000068
20
83.211019326722038
10
-12.74325
20
83.211019326722052
42
-0.41421356237309503
0
LWPOLYLINE
5
160
100
AcDbEntity
8
0
100
AcDbPolyline
90
8
70
1
43
0.0
10
-273.00675000000007
20
61.16101932672202
10
-279.50675000000001
20
61.161019326722027
42
-0.41421356237309503
10
-280.00675000000001
20
61.661019326722041
10
-280.00675000000001
20
75.661019326722041
42
-0.41421356237309503
10
-279.50675000000001
20
76.161019326722041
10
-273.00675000000007
20
76.161019326722041
42
-0.41421356237309503
10
-272.50675000000007
20
75.661019326722027
10
-272.50675000000007
20
61.661019326722041
42
-0.41421356237309503
0
LWPOLYLINE
5
161
100
AcDbEntity
8
0
100
AcDbPolyline
90
8
70
1
43
0.0
10
-164.16250000000002
20
63.661019326722027
10
-164.16249999999997
20
76.661019326722041
42
-0.4142135623730222
10
-163.66250000000002
20
77.161019326722041
10
-150.66249999999999
20
77.161019326722055
42
-0.41421356237310025
10
-150.16249999999999
20
76.661019326722041
10
-150.16249999999999
20
63.661019326722027
42
-0.41421356237310542
10
-150.66249999999999
20
63.161019326722034
10
-163.66250000000002
20
63.161019326722041
42
-0.41421356237312623
0
LWPOLYLINE
5
162
100
AcDbEntity
8
0
100
AcDbPolyline
90
8
70
1
43
0.0
10
-231.125
20
38.56101932672204
10
-231.125
20
25.561019326722032
42
-0.41421356237304563
10
-231.625
20
25.061019326722036
10
-244.62500000000003
20
25.061019326722036
42
-0.41421356237313145
10
-245.12500000000003
20
25.561019326722032
10
-245.12500000000003
20
38.56101932672204
42
-0.41421356237312101
10
-244.62500000000003
20
39.061019326722025
10
-231.625
20
39.06101932672204
42
-0.41421356237308982
0
LWPOLYLINE
5
163
100
AcDbEntity
8
0
100
AcDbPolyline
90
8
70
1
43
0.0
10
-275.38800000000003
20
26.061019326722032
10
-281.88799999999998
20
26.061019326722032
42
-0.41421356237309503
10
-282.38799999999998
20
26.56101932672204
10
-282.38799999999998
20
40.561019326722032
42
-0.41421356237309503
10
-281.88799999999998
20
41.061019326722032
10
-275.38800000000003
20
41.061019326722032
42
-0.41421356237309503
10
-274.88800000000003
20
40.561019326722025
10
-274.88800000000003
20
26.561019326722032
42
-0.41421356237309503
0
LWPOLYLINE
5
164
100
AcDbEntity
8
0
100
AcDbPolyline
90
8
70
1
43
0.0
10
-271.31875000000002
20
63.661019326722027
10
-271.31875000000002
20
76.661019326722041
42
-0.4142135623730222
10
-270.81875000000002
20
77.161019326722041
10
-257.81875000000002
20
77.161019326722041
42
-0.41421356237313667
10
-257.31875000000002
20
76.661019326722041
10
-257.31874999999997
20
63.661019326722027
42
-0.41421356237307422
10
-257.81875000000002
20
63.161019326722034
10
-270.81875000000002
20
63.161019326722041
42
-0.41421356237312623
0
LWPOLYLINE
5
165
100
AcDbEntity
8
0
100
AcDbPolyline
90
8
70
1
43
0.0
10
-203.77500000000001
20
99.761019326722021
10
-203.77500000000001
20
113.76101932672201
42
-0.41421356237309503
10
-203.27500000000001
20
114.26101932672202
10
-196.77500000000003
20
114.26101932672202
42
-0.41421356237309503
10
-196.27500000000003
20
113.76101932672205
10
-196.27500000000012
20
99.761019326722021
42
-0.41421356237309503
10
-196.77500000000009
20
99.261019326722035
10
-203.27500000000001
20
99.261019326722021
42
-0.41421356237309503
0
LWPOLYLINE
5
166
100
AcDbEntity
8
0
100
AcDbPolyline
90
4
70
1
43
0.0
10
-311.28830085437892
20
118.96812980624793
42
0.41641652230287735
10
-307.17169913172347
20
118.96812982025038
10
-306.4645886381951
20
118.26101932672199
42
-0.4158513326022299
10
-311.99541136180483
20
118.26101932672185
0
LWPOLYLINE
5
167
100
AcDbEntity
8
0
100
AcDbPolyline
90
4
70
1
43
0.0
10
-323.46583863819501
20
-1.7514806732779702
10
-324.17294913172339
20
-2.4585911668063458
42
0.41641652429852999
10
-328.28955086827654
20
-2.4585911668063467
10
-328.99666136180497
20
-1.7514806732779702
42
-0.41585133260225471
0
LWPOLYLINE
5
168
100
AcDbEntity
8
0
100
AcDbPolyline
90
4
70
1
43
0.0
10
-233.03955086827656
20
-2.4585911668063436
10
-233.74666136180494
20
-1.7514806732779642
42
-0.41585133260225321
10
-228.21583863819507
20
-1.751480673277962
10
-228.92294541938159
20
-2.4585874544645043
42
0.41641652230290627
0
LWPOLYLINE
5
169
100
AcDbEntity
8
0
100
AcDbPolyline
90
4
70
1
43
0.0
10
-114.62294914562109
20
-2.4585911528038382
42
0.41641652230287668
10
-118.73955086827658
20
-2.4585911668063281
10
-119.44666136180496
20
-1.751480673277956
42
-0.41585133260223262
10
-113.9158386381952
20
-1.7514806732778232
0
LWPOLYLINE
5
170
100
AcDbEntity
8
0
100
AcDbPolyline
90
4
70
1
43
0.0
10
-233.18330085437893
20
118.96812980624794
42
0.41641652230287735
10
-229.06669913172348
20
118.9681298202504
10
-228.35958863819508
20
118.26101932672201
42
-0.4158513326022299
10
-233.89041136180481
20
118.26101932672186
0
LWPOLYLINE
5
171
100
AcDbEntity
8
0
100
AcDbPolyline
90
4
70
1
43
0.0
10
-56.970800854378922
20
118.96812980624787
42
0.41641652230287407
10
-52.854199131723441
20
118.96812982025037
10
-52.147088638195044
20
118.26101932672199
42
-0.4158513326022299
10
-57.67791136180481
20
118.26101932672185
0
LWPOLYLINE
5
172
100
AcDbEntity
8
0
100
AcDbPolyline
90
4
70
1
43
0.0
10
-19.372949145621096
20
-2.4585911528038356
42
0.41641652230287729
10
-23.489550868276581
20
-2.4585911668063267
10
-24.196661361804964
20
-1.7514806732779475
42
-0.41585133260223178
10
-18.665838638195201
20
-1.7514806732778065
0
LWPOLYLINE
5
173
100
AcDbEntity
8
0
100
AcDbPolyline
90
78
70
1
43
0.0
10
-232.98124999999999
20
-4.5014806732780075
42
0.99999999999999989
10
-228.98124999999996
20
-4.5014806732779507
42
-0.41421356237309198
10
-226.98124999999999
20
-2.5014806732779702
10
-166.07500000000002
20
-2.5014806732779702
42
0.41421356237309692
10
-164.07500000000002
20
-0.50148067327796919
10
-164.07500000000002
20
0.19851932672199937
42
-0.99999999999999989
10
-159.77500000000003
20
0.1985193267220349
10
-159.77500000000003
20
-0.50148067327796919
42
0.41421356237309548
10
-157.77500000000003
20
-2.5014806732779649
10
-120.68125000000001
20
-2.5014806732779782
42
-0.41421356237309531
10
-118.68125000000001
20
-4.5014806732779729
42
0.99999999999999989
10
-114.68125000000001
20
-4.5014806732780031
42
-0.4142135623730997
10
-112.68125000000001
20
-2.5014806732779715
10
-47.01250000000001
20
-2.5014806732779702
42
0.41421356237309254
10
-45.012500000000003
20
-0.50148067327796875
10
-45.012500000000003
20
0.19851932672203462
42
-0.99999999999999989
10
-40.712500000000006
20
0.1985193267220349
10
-40.71250000000002
20
-0.50148067327796919
42
0.41421356237309243
10
-38.712500000000006
20
-2.5014806732779711
10
-25.431249999999999
20
-2.5014806732779693
42
-0.41421356237309515
10
-23.431249999999999
20
-4.501480673277972
42
0.99999999999999989
10
-19.431249999999999
20
-4.5014806732779711
42
-0.41421356237309503
10
-17.431249999999999
20
-2.5014806732779711
10
-0.77499999999999902
20
-2.5014806732779702
42
0.41421356237309481
10
1.2250000000000001
20
-0.50148067327797041
10
1.2250000000000001
20
46.961019326722031
42
0.41421356237309348
10
-0.77500000000000613
20
48.961019326722031
10
-1.4749999999999996
20
48.961019326722024
42
-0.99999999999999989
10
-1.4750000000000059
20
53.261019326722021
10
-0.77500000000000568
20
53.261019326722021
42
0.4142135623730982
10
1.2250000000000001
20
55.261019326722042
10
1.2250000000000001
20
117.01101932672204
42
0.41421356237309548
10
-0.77500000000000058
20
119.01101932672204
10
-50.912500000000009
20
119.01101932672202
42
-0.41421356237309503
10
-52.912500000000009
20
121.01101932672202
42
0.99999999999999989
10
-56.912500000000023
20
121.01101932672202
42
-0.41421356237309503
10
-58.912500000000009
20
119.01101932672204
10
-71.418749999999989
20
119.01101932672204
42
0.41421356237309503
10
-73.418749999999989
20
117.01101932672204
10
-73.418749999999989
20
116.31101932672202
42
-0.99999999999999989
10
-77.718749999999986
20
116.31101932672202
10
-77.718749999999972
20
117.01101932672202
42
0.41421356237309764
10
-79.71875
20
119.01101932672202
10
-206.03125000000003
20
119.01101932672204
42
0.41421356237309503
10
-208.03125
20
117.01101932672204
10
-208.03125
20
116.31101932672198
42
-0.99999999999999989
10
-212.33125000000001
20
116.31101932672202
10
-212.33125000000001
20
117.01101932672202
42
0.41421356237309503
10
-214.33125000000001
20
119.01101932672202
10
-227.12500000000003
20
119.01101932672204
42
-0.41421356237309503
10
-229.125
20
121.01101932672202
42
0.99999999999999989
10
-233.12500000000003
20
121.01101932672202
42
-0.41421356237309503
10
-235.12500000000003
20
119.01101932672204
10
-305.23000000000002
20
119.01101932672204
42
-0.41421356237309764
10
-307.23000000000002
20
121.01101932672205
42
0.99999999999999989
10
-311.23000000000002
20
121.01101932672201
42
-0.41421356237309243
10
-313.23000000000002
20
119.01101932672204
10
-346.88750000000005
20
119.01101932672204
42
0.41421356237308721
10
-348.8875000000001
20
117.01101932672204
10
-348.8875000000001
20
45.736019326722044
42
0.41421356237307161
10
-346.88750000000005
20
43.73601932672203
10
-346.18750000000006
20
43.736019326722044
42
-0.99999999999999989
10
-346.18750000000006
20
39.436019326722047
10
-346.88749999999999
20
39.436019326722054
42
0.41421356237310542
10
-348.8875000000001
20
37.436019326722054
10
-348.8875000000001
20
-0.50148067327797641
42
0.41421356237307377
10
-346.88750000000005
20
-2.5014806732780013
10
-330.23124999999999
20
-2.5014806732779427
42
-0.4142135623730952
10
-328.23124999999999
20
-4.501480673277972
42
0.99999999999999989
10
-324.23124999999999
20
-4.5014806732778441
42
-0.41421356237307638
10
-322.23124999999993
20
-2.5014806732779702
10
-313.71250000000003
20
-2.5014806732779702
42
0.41421356237309687
10
-311.71250000000003
20
-0.50148067327796897
10
-311.71250000000003
20
0.19851932672200021
42
-0.99999999999999989
10
-307.41250000000002
20
0.19851932672203462
10
-307.41250000000002
20
-0.50148067327796919
42
0.41421356237309687
10
-305.41250000000002
20
-2.5014806732779742
10
-234.98124999999999
20
-2.5014806732779782
42
-0.41421356237310042
0
CIRCLE
5
174
100
AcDbEntity
8
0
100
AcDbCircle
10
-326.23125000000005
20
-4.5014806732779444
30
0
40
1.4000000000000057
210
0
220
-0
230
1
0
LWPOLYLINE
5
175
100
AcDbEntity
8
0
100
AcDbPolyline
90
8
70
1
43
0.0
10
-293.03750000000002
20
38.56101932672204
10
-293.03750000000002
20
25.561019326722032
42
-0.41421356237304563
10
-293.53750000000002
20
25.061019326722036
10
-306.53750000000002
20
25.061019326722018
42
-0.41421356237310025
10
-307.03750000000002
20
25.561019326722032
10
-307.03750000000008
20
38.56101932672204
42
-0.41421356237311063
10
-306.53750000000002
20
39.061019326722025
10
-293.53750000000002
20
39.06101932672204
42
-0.41421356237308982
0
LWPOLYLINE
5
176
100
AcDbEntity
8
0
100
AcDbPolyline
90
8
70
1
43
0.0
10
-268.49425000000002
20
83.21101932672201
42
0.4142135623730846
10
-267.99424999999997
20
83.711019326722024
10
-267.99425000000002
20
97.711019326722024
42
0.41421356237310542
10
-268.49425000000002
20
98.21101932672201
10
-274.49425000000008
20
98.211019326722038
42
0.41421356237310542
10
-274.99425000000008
20
97.711019326722024
10
-274.99425000000008
20
83.711019326722024
42
0.4142135623730846
10
-274.49425000000008
20
83.21101932672201
0
LWPOLYLINE
5
177
100
AcDbEntity
8
0
100
AcDbPolyline
90
8
70
1
43
0.0
10
-202.26249999999999
20
1.7485193267220289
42
0.41421356237313295
10
-201.76249999999999
20
1.2485193267220283
10
-188.76249999999999
20
1.2485193267220289
42
0.41421356237302509
10
-188.26249999999999
20
1.7485193267220289
10
-188.26249999999999
20
14.748519326722032
42
0.41421356237312362
10
-188.76249999999999
20
15.248519326722029
10
-201.76249999999999
20
15.248519326722032
42
0.4142135623730781
10
-202.26249999999999
20
14.748519326722032
0
LWPOLYLINE
5
178
100
AcDbEntity
8
0
100
AcDbPolyline
90
8
70
1
43
0.0
10
-54.912500000000009
20
76.661019326722041
10
-54.912500000000009
20
63.661019326722027
42
-0.41421356237309503
10
-55.412500000000009
20
63.161019326722034
10
-68.412499999999994
20
63.161019326722034
42
-0.41421356237310025
10
-68.912499999999994
20
63.661019326722027
10
-68.912499999999994
20
76.661019326722041
42
-0.41421356237309503
10
-68.412499999999994
20
77.161019326722041
10
-55.412500000000016
20
77.161019326722041
42
-0.41421356237310025
0
LWPOLYLINE
5
179
100
AcDbEntity
8
0
100
AcDbPolyline
90
8
70
1
43
0.0
10
-259.36250000000001
20
44.11101932672203
42
0.4142135623730222
10
-258.86250000000007
20
44.61101932672203
10
-258.86250000000001
20
57.611019326722037
42
0.41421356237312101
10
-259.36250000000001
20
58.111019326722044
10
-260.36250000000001
20
58.11101932672203
42
0.4142135623730222
10
-260.86250000000001
20
57.611019326722037
10
-260.86250000000001
20
44.61101932672203
42
0.41421356237312101
10
-260.36250000000001
20
44.111019326722023
0
LWPOLYLINE
5
180
100
AcDbEntity
8
0
100
AcDbPolyline
90
8
70
1
43
0.0
10
-2.1875000000000004
20
101.26101932672201
42
0.41421356237307377
10
-1.6874999999999942
20
101.76101932672202
10
-1.6875000000000007
20
114.76101932672202
42
0.41421356237307388
10
-2.1875
20
115.26101932672204
10
-3.1875000000000009
20
115.26101932672204
42
0.41421356237307355
10
-3.6874999999999858
20
114.76101932672202
10
-3.6875000000000009
20
101.76101932672202
42
0.41421356237306639
10
-3.1875000000000142
20
101.26101932672202
0
LWPOLYLINE
5
181
100
AcDbEntity
8
0
100
AcDbPolyline
90
8
70
1
43
0.0
10
-198.28749999999999
20
82.21101932672201
42
0.41421356237310542
10
-197.78750000000002
20
82.711019326722024
10
-197.78749999999999
20
95.711019326722052
42
0.4142135623730846
10
-198.28749999999999
20
96.211019326722024
10
-211.28749999999999
20
96.211019326722052
42
0.41421356237309503
10
-211.78750000000002
20
95.711019326722052
10
-211.78750000000002
20
82.711019326722024
42
0.41421356237313667
10
-211.28749999999999
20
82.21101932672201
0
LWPOLYLINE
5
182
100
AcDbEntity
8
0
100
AcDbPolyline
90
8
70
1
43
0.0
10
-21.287500000000001
20
101.76101932672202
42
0.41421356237310025
10
-20.787500000000001
20
101.26101932672202
10
-7.7875000000000005
20
101.26101932672201
42
0.41421356237307294
10
-7.2874999999999801
20
101.76101932672202
10
-7.2874999999999996
20
114.76101932672202
42
0.41421356237306639
10
-7.7874999999999872
20
115.26101932672204
10
-20.787500000000001
20
115.26101932672204
42
0.41421356237307161
10
-21.287500000000001
20
114.76101932672202
0
LWPOLYLINE
5
183
100
AcDbEntity
8
0
100
AcDbPolyline
90
8
70
1
43
0.0
10
-117.32500000000002
20
25.061019326722036
42
0.41421356237310542
10
-116.82500000000002
20
25.561019326722032
10
-116.82500000000002
20
38.561019326722025
42
0.41421356237309243
10
-117.32500000000002
20
39.06101932672204
10
-130.32499999999999
20
39.061019326722025
42
0.41421356237308204
10
-130.82499999999999
20
38.56101932672204
10
-130.82499999999999
20
25.561019326722032
42
0.41421356237309243
10
-130.32499999999999
20
25.061019326722022
0
LWPOLYLINE
5
184
100
AcDbEntity
8
0
100
AcDbPolyline
90
8
70
1
43
0.0
10
-312.58749999999998
20
25.061019326722036
42
0.41421356237304563
10
-312.08749999999998
20
25.561019326722032
10
-312.08749999999998
20
38.561019326722025
42
0.41421356237310025
10
-312.58749999999998
20
39.06101932672204
10
-325.58749999999998
20
39.061019326722025
42
0.41421356237318085
10
-326.08749999999992
20
38.56101932672204
10
-326.08749999999992
20
25.561019326722032
42
0.4142135623730222
10
-325.58749999999998
20
25.061019326722032
0
LWPOLYLINE
5
185
100
AcDbEntity
8
0
100
AcDbPolyline
90
8
70
1
43
0.0
10
-154.63750000000002
20
82.711019326722024
42
0.41421356237309503
10
-154.13749999999999
20
82.21101932672201
10
-141.13749999999999
20
82.21101932672201
42
0.41421356237309503
10
-140.63749999999999
20
82.711019326722024
10
-140.63749999999999
20
95.711019326722052
42
0.41421356237307422
10
-141.13749999999999
20
96.211019326722024
10
-154.13749999999999
20
96.211019326722052
42
0.41421356237307422
10
-154.63750000000002
20
95.711019326722052
0
LWPOLYLINE
5
186
100
AcDbEntity
8
0
100
AcDbPolyline
90
8
70
1
43
0.0
10
-331.63749999999999
20
44.11101932672203
42
0.41421356237319906
10
-331.13750000000005
20
44.61101932672203
10
-331.13750000000005
20
57.611019326722037
42
0.4142135623730222
10
-331.63749999999999
20
58.111019326722008
10
-344.63749999999999
20
58.11101932672203
42
0.41421356237319906
10
-345.13749999999993
20
57.611019326722037
10
-345.13749999999993
20
44.61101932672203
42
0.4142135623730222
10
-344.63749999999999
20
44.111019326722058
0
LWPOLYLINE
5
187
100
AcDbEntity
8
0
100
AcDbPolyline
90
8
70
1
43
0.0
10
-253.05625000000003
20
82.21101932672201
42
0.41421356237313667
10
-252.55625000000003
20
82.711019326722024
10
-252.55625000000003
20
95.711019326722052
42
0.41421356237309503
10
-253.05625000000003
20
96.211019326722024
10
-266.05624999999998
20
96.211019326722052
42
0.41421356237309503
10
-266.55624999999998
20
95.711019326722052
10
-266.55624999999998
20
82.711019326722024
42
0.41421356237313667
10
-266.05624999999998
20
82.21101932672201
0
LWPOLYLINE
5
188
100
AcDbEntity
8
0
100
AcDbPolyline
90
8
70
1
43
0.0
10
-59.675000000000011
20
38.56101932672204
10
-59.675000000000011
20
25.561019326722032
42
-0.41421356237309764
10
-60.174999999999997
20
25.061019326722036
10
-73.174999999999983
20
25.061019326722036
42
-0.41421356237310025
10
-73.674999999999997
20
25.561019326722032
10
-73.674999999999997
20
38.56101932672204
42
-0.41421356237307683
10
-73.174999999999997
20
39.061019326722025
10
-60.174999999999983
20
39.061019326722018
42
-0.41421356237307683
0
LWPOLYLINE
5
189
100
AcDbEntity
8
0
100
AcDbPolyline
90
8
70
1
43
0.0
10
-312.58749999999998
20
101.26101932672201
42
0.4142135623730846
10
-312.08749999999998
20
101.76101932672202
10
-312.08749999999998
20
114.76101932672202
42
0.4142135623730846
10
-312.58749999999998
20
115.26101932672204
10
-325.58749999999998
20
115.26101932672204
42
0.41421356237313667
10
-326.08749999999992
20
114.76101932672202
10
-326.08749999999992
20
101.76101932672202
42
0.4142135623730222
10
-325.58749999999998
20
101.26101932672202
0
LWPOLYLINE
5
190
100
AcDbEntity
8
0
100
AcDbPolyline
90
8
70
1
43
0.0
10
-160.1875
20
82.21101932672201
42
0.41421356237309503
10
-159.6875
20
82.711019326722024
10
-159.6875
20
95.711019326722052
42
0.4142135623730846
10
-160.1875
20
96.211019326722024
10
-173.1875
20
96.211019326722052
42
0.4142135623730846
10
-173.68750000000003
20
95.711019326722052
10
-173.68750000000003
20
82.711019326722024
42
0.41421356237310542
10
-173.1875
20
82.21101932672201
0
LWPOLYLINE
5
191
100
AcDbEntity
8
0
100
AcDbPolyline
90
8
70
1
43
0.0
10
-251.11824999999999
20
83.711019326722024
42
0.4142135623730846
10
-250.61824999999999
20
83.211019326722038
10
-244.61825000000002
20
83.21101932672201
42
0.41421356237309503
10
-244.11824999999999
20
83.711019326722024
10
-244.11824999999999
20
97.711019326722024
42
0.41421356237313667
10
-244.61825000000002
20
98.21101932672201
10
-250.61824999999999
20
98.211019326722038
42
0.41421356237310542
10
-251.11824999999999
20
97.711019326722024
0
LWPOLYLINE
5
192
100
AcDbEntity
8
0
100
AcDbPolyline
90
8
70
1
43
0.0
10
-284.06250000000006
20
44.61101932672203
42
0.41421356237312101
10
-283.5625
20
44.111019326722044
10
-282.5625
20
44.11101932672203
42
0.4142135623730222
10
-282.0625
20
44.61101932672203
10
-282.0625
20
57.611019326722037
42
0.41421356237312101
10
-282.5625
20
58.111019326722044
10
-283.5625
20
58.11101932672203
42
0.4142135623730222
10
-284.06250000000006
20
57.611019326722037
0
LWPOLYLINE
5
193
100
AcDbEntity
8
0
100
AcDbPolyline
90
8
70
1
43
0.0
10
-136.375
20
25.061019326722036
42
0.41421356237307422
10
-135.87500000000003
20
25.561019326722032
10
-135.875
20
38.561019326722025
42
0.41421356237308204
10
-136.37500000000003
20
39.06101932672204
10
-149.375
20
39.061019326722025
42
0.41421356237308204
10
-149.875
20
38.56101932672204
10
-149.875
20
25.561019326722032
42
0.41421356237309243
10
-149.375
20
25.061019326722032
0
LWPOLYLINE
5
194
100
AcDbEntity
8
0
100
AcDbPolyline
90
8
70
1
43
0.0
10
-136.375
20
101.26101932672201
42
0.4142135623730534
10
-135.875
20
101.76101932672202
10
-135.875
20
114.76101932672202
42
0.41421356237306384
10
-136.37500000000003
20
115.26101932672204
10
-149.375
20
115.26101932672204
42
0.41421356237307422
10
-149.875
20
114.76101932672202
10
-149.875
20
101.76101932672202
42
0.41421356237307422
10
-149.375
20
101.26101932672202
0
LWPOLYLINE
5
195
100
AcDbEntity
8
0
100
AcDbPolyline
90
8
70
1
43
0.0
10
-36.362499999999997
20
63.161019326722034
42
0.41421356237309764
10
-35.862499999999997
20
63.661019326722027
10
-35.862500000000004
20
76.661019326722041
42
0.41421356237310025
10
-36.362500000000004
20
77.161019326722027
10
-49.362500000000004
20
77.161019326722041
42
0.41421356237309503
10
-49.862499999999983
20
76.661019326722041
10
-49.862499999999997
20
63.661019326722027
42
0.41421356237308982
10
-49.362500000000011
20
63.161019326722041
0
LWPOLYLINE
5
196
100
AcDbEntity
8
0
100
AcDbPolyline
90
8
70
1
43
0.0
10
-331.13750000000005
20
38.56101932672204
10
-331.13750000000005
20
25.561019326722032
42
-0.4142135623731939
10
-331.63749999999999
20
25.061019326722036
10
-344.63749999999999
20
25.061019326722047
42
-0.4142135623730222
10
-345.13749999999993
20
25.561019326722032
10
-345.13749999999993
20
38.56101932672204
42
-0.41421356237318085
10
-344.63749999999999
20
39.061019326722025
10
-331.63749999999999
20
39.061019326722011
42
-0.41421356237301177
0
LWPOLYLINE
5
197
100
AcDbEntity
8
0
100
AcDbPolyline
90
8
70
1
43
0.0
10
-326.08749999999992
20
44.61101932672203
42
0.4142135623730222
10
-325.58749999999998
20
44.111019326722037
10
-312.58749999999998
20
44.11101932672203
42
0.4142135623730222
10
-312.08749999999998
20
44.61101932672203
10
-312.08749999999998
20
57.611019326722037
42
0.41421356237312101
10
-312.58749999999998
20
58.111019326722044
10
-325.58749999999998
20
58.11101932672203
42
0.41421356237319906
10
-326.08749999999992
20
57.611019326722037
0
LWPOLYLINE
5
198
100
AcDbEntity
8
0
100
AcDbPolyline
90
8
70
1
43
0.0
10
-27.768750000000004
20
63.161019326722034
42
0.41421356237309764
10
-27.268750000000001
20
63.661019326722027
10
-27.268750000000004
20
76.661019326722041
42
0.41421356237309764
10
-27.768750000000004
20
77.161019326722027
10
-28.768750000000001
20
77.161019326722041
42
0.41421356237309764
10
-29.26874999999999
20
76.661019326722041
10
-29.268749999999997
20
63.661019326722027
42
0.41421356237310802
10
-28.768749999999983
20
63.161019326722041
0
LWPOLYLINE
5
199
100
AcDbEntity
8
0
100
AcDbPolyline
90
8
70
1
43
0.0
10
-49.8125
20
101.26101932672201
42
0.41421356237307422
10
-49.312499999999993
20
101.76101932672202
10
-49.3125
20
114.76101932672202
42
0.41421356237309503
10
-49.812499999999993
20
115.26101932672204
10
-50.812500000000007
20
115.26101932672204
42
0.41421356237307944
10
-51.312500000000014
20
114.76101932672202
10
-51.312500000000007
20
101.76101932672202
42
0.41421356237310542
10
-50.812500000000007
20
101.26101932672202
0
LWPOLYLINE
5
200
100
AcDbEntity
8
0
100
AcDbPolyline
90
8
70
1
43
0.0
10
-179.23750000000001
20
82.21101932672201
42
0.41421356237313667
10
-178.73750000000001
20
82.711019326722024
10
-178.73750000000001
20
95.711019326722052
42
0.41421356237309503
10
-179.23750000000001
20
96.211019326722024
10
-192.23750000000001
20
96.211019326722052
42
0.4142135623730846
10
-192.73750000000004
20
95.711019326722052
10
-192.73750000000004
20
82.711019326722024
42
0.41421356237310542
10
-192.23750000000001
20
82.21101932672201
0
LWPOLYLINE
5
201
100
AcDbEntity
8
0
100
AcDbPolyline
90
8
70
1
43
0.0
10
-98.275000000000006
20
25.061019326722036
42
0.41421356237310542
10
-97.775000000000006
20
25.561019326722032
10
-97.775000000000006
20
38.561019326722025
42
0.41421356237309243
10
-98.275000000000006
20
39.06101932672204
10
-111.27500000000001
20
39.061019326722025
42
0.41421356237308204
10
-111.77500000000002
20
38.56101932672204
10
-111.77500000000002
20
25.561019326722032
42
0.41421356237309243
10
-111.27500000000001
20
25.061019326722022
0
LWPOLYLINE
5
202
100
AcDbEntity
8
0
100
AcDbPolyline
90
8
70
1
43
0.0
10
-155.42500000000001
20
25.061019326722036
42
0.41421356237307422
10
-154.92500000000004
20
25.561019326722032
10
-154.92500000000001
20
38.561019326722025
42
0.41421356237308204
10
-155.42500000000004
20
39.06101932672204
10
-168.42500000000001
20
39.061019326722025
42
0.41421356237311063
10
-168.92500000000001
20
38.56101932672204
10
-168.92500000000001
20
25.561019326722032
42
0.41421356237310025
10
-168.42500000000001
20
25.061019326722032
0
LWPOLYLINE
5
203
100
AcDbEntity
8
0
100
AcDbPolyline
90
8
70
1
43
0.0
10
-41.125
20
25.061019326722036
42
0.41421356237309503
10
-40.625
20
25.561019326722032
10
-40.625
20
38.561019326722025
42
0.41421356237310025
10
-41.125000000000007
20
39.06101932672204
10
-54.125000000000007
20
39.061019326722025
42
0.41421356237307683
10
-54.624999999999986
20
38.56101932672204
10
-54.625
20
25.561019326722032
42
0.41421356237308982
10
-54.125000000000014
20
25.061019326722032
0
LWPOLYLINE
5
204
100
AcDbEntity
8
0
100
AcDbPolyline
90
8
70
1
43
0.0
10
-217.33750000000001
20
82.21101932672201
42
0.41421356237310542
10
-216.83750000000003
20
82.711019326722024
10
-216.83750000000001
20
95.711019326722052
42
0.4142135623730846
10
-217.33750000000001
20
96.211019326722024
10
-230.33750000000001
20
96.211019326722052
42
0.41421356237309503
10
-230.83750000000003
20
95.711019326722052
10
-230.83750000000003
20
82.711019326722024
42
0.41421356237313667
10
-230.33750000000001
20
82.21101932672201
0
LWPOLYLINE
5
205
100
AcDbEntity
8
0
100
AcDbPolyline
90
8
70
1
43
0.0
10
-79.224999999999994
20
25.061019326722036
42
0.41421356237309764
10
-78.725000000000009
20
25.561019326722032
10
-78.724999999999994
20
38.561019326722025
42
0.41421356237309764
10
-79.224999999999994
20
39.06101932672204
10
-92.224999999999994
20
39.061019326722025
42
0.41421356237308204
10
-92.725000000000009
20
38.56101932672204
10
-92.725000000000009
20
25.561019326722032
42
0.41421356237309243
10
-92.224999999999994
20
25.061019326722022
0
LWPOLYLINE
5
206
100
AcDbEntity
8
0
100
AcDbPolyline
90
8
70
1
43
0.0
10
-25.387500000000003
20
101.26101932672201
42
0.41421356237307161
10
-24.887499999999999
20
101.76101932672202
10
-24.887500000000003
20
114.76101932672202
42
0.41421356237310025
10
-25.387500000000003
20
115.26101932672202
10
-26.387499999999999
20
115.26101932672204
42
0.41421356237307161
10
-26.887499999999989
20
114.76101932672202
10
-26.887499999999996
20
101.76101932672202
42
0.41421356237308982
10
-26.387500000000017
20
101.26101932672202
0
LWPOLYLINE
5
207
100
AcDbEntity
8
0
100
AcDbPolyline
90
8
70
1
43
0.0
10
-22.074999999999999
20
25.061019326722036
42
0.41421356237309503
10
-21.575000000000003
20
25.561019326722032
10
-21.575000000000003
20
38.561019326722025
42
0.41421356237309243
10
-22.074999999999996
20
39.06101932672204
10
-35.075000000000003
20
39.061019326722025
42
0.41421356237308982
10
-35.57500000000001
20
38.56101932672204
10
-35.575000000000003
20
25.561019326722032
42
0.41421356237309503
10
-35.075000000000003
20
25.061019326722032
0
LWPOLYLINE
5
208
100
AcDbEntity
8
0
100
AcDbPolyline
90
8
70
1
43
0.0
10
-112.56250000000001
20
63.161019326722034
42
0.41421356237310542
10
-112.0625
20
63.661019326722027
10
-112.0625
20
76.661019326722041
42
0.41421356237310025
10
-112.56250000000001
20
77.161019326722041
10
-125.5625
20
77.161019326722041
42
0.41421356237307422
10
-126.0625
20
76.661019326722041
10
-126.06250000000001
20
63.661019326722027
42
0.41421356237308982
10
-125.56249999999999
20
63.161019326722027
0
LWPOLYLINE
5
209
100
AcDbEntity
8
0
100
AcDbPolyline
90
8
70
1
43
0.0
10
-131.61250000000001
20
63.161019326722034
42
0.41421356237310542
10
-131.11250000000001
20
63.661019326722027
10
-131.11250000000001
20
76.661019326722041
42
0.41421356237310025
10
-131.61250000000001
20
77.161019326722041
10
-144.61250000000001
20
77.161019326722041
42
0.41421356237307422
10
-145.11250000000001
20
76.661019326722041
10
-145.11250000000001
20
63.661019326722027
42
0.41421356237308982
10
-144.61250000000001
20
63.161019326722027
0
LWPOLYLINE
5
210
100
AcDbEntity
8
0
100
AcDbPolyline
90
8
70
1
43
0.0
10
-278.46250000000003
20
44.61101932672203
42
0.41421356237312101
10
-277.96249999999998
20
44.111019326722044
10
-264.96249999999998
20
44.11101932672203
42
0.41421356237307422
10
-264.46249999999998
20
44.61101932672203
10
-264.46249999999998
20
57.611019326722037
42
0.41421356237313145
10
-264.96249999999998
20
58.111019326722044
10
-277.96249999999998
20
58.11101932672203
42
0.4142135623730222
10
-278.46250000000003
20
57.611019326722037
0
LWPOLYLINE
5
211
100
AcDbEntity
8
0
100
AcDbPolyline
90
8
70
1
43
0.0
10
-234.93750000000003
20
101.26101932672201
42
0.41421356237309503
10
-234.4375
20
101.76101932672202
10
-234.4375
20
114.76101932672202
42
0.41421356237309503
10
-234.93750000000003
20
115.26101932672204
10
-235.9375
20
115.26101932672204
42
0.4142135623730846
10
-236.4375
20
114.76101932672202
10
-236.4375
20
101.76101932672202
42
0.4142135623730846
10
-235.9375
20
101.26101932672202
0
LWPOLYLINE
5
212
100
AcDbEntity
8
0
100
AcDbPolyline
90
8
70
1
43
0.0
10
-245.91250000000002
20
1.2485193267220289
42
0.41421356237302509
10
-245.41250000000005
20
1.7485193267220289
10
-245.41250000000002
20
14.748519326722032
42
0.41421356237312362
10
-245.91250000000002
20
15.248519326722029
10
-258.91250000000002
20
15.248519326722032
42
0.4142135623730781
10
-259.41250000000002
20
14.748519326722032
10
-259.41250000000002
20
1.7485193267220289
42
0.41421356237313295
10
-258.91250000000002
20
1.2485193267220287
0
LWPOLYLINE
5
213
100
AcDbEntity
8
0
100
AcDbPolyline
90
8
70
1
43
0.0
10
-69.700000000000003
20
44.11101932672203
42
0.41421356237309503
10
-69.200000000000003
20
44.61101932672203
10
-69.200000000000003
20
57.611019326722037
42
0.4142135623730846
10
-69.699999999999989
20
58.111019326722023
10
-82.700000000000017
20
58.11101932672203
42
0.414213562373069
10
-83.200000000000003
20
57.611019326722037
10
-83.200000000000017
20
44.61101932672203
42
0.41421356237306384
10
-82.700000000000031
20
44.111019326722023
0
LWPOLYLINE
5
214
100
AcDbEntity
8
0
100
AcDbPolyline
90
8
70
1
43
0.0
10
-331.63749999999999
20
1.2485193267220289
42
0.4142135623731929
10
-331.13750000000005
20
1.7485193267220289
10
-331.13750000000005
20
14.748519326722032
42
0.41421356237301959
10
-331.63749999999999
20
15.248519326722004
10
-344.63749999999999
20
15.248519326722032
42
0.4142135623731939
10
-345.13749999999993
20
14.748519326722032
10
-345.13749999999993
20
1.7485193267220289
42
0.41421356237301948
10
-344.63749999999999
20
1.2485193267220287
0
LWPOLYLINE
5
215
100
AcDbEntity
8
0
100
AcDbPolyline
90
8
70
1
43
0.0
10
-102.25000000000001
20
44.61101932672203
42
0.41421356237309503
10
-101.75
20
44.111019326722023
10
-88.75
20
44.11101932672203
42
0.41421356237308982
10
-88.25
20
44.61101932672203
10
-88.25
20
57.611019326722037
42
0.41421356237309503
10
-88.75
20
58.111019326722023
10
-101.75
20
58.11101932672203
42
0.41421356237308982
10
-102.25000000000001
20
57.611019326722037
0
LWPOLYLINE
5
216
100
AcDbEntity
8
0
100
AcDbPolyline
90
8
70
1
43
0.0
10
-164.95000000000002
20
44.11101932672203
42
0.41421356237307422
10
-164.44999999999996
20
44.61101932672203
10
-164.44999999999999
20
57.611019326722037
42
0.41421356237313145
10
-164.95000000000002
20
58.111019326722044
10
-177.94999999999999
20
58.11101932672203
42
0.41421356237307422
10
-178.44999999999999
20
57.611019326722037
10
-178.44999999999999
20
44.61101932672203
42
0.41421356237313145
10
-177.94999999999999
20
44.111019326722023
0
LWPOLYLINE
5
217
100
AcDbEntity
8
0
100
AcDbPolyline
90
8
70
1
43
0.0
10
-74.462500000000006
20
63.161019326722034
42
0.41421356237310542
10
-73.962500000000006
20
63.661019326722027
10
-73.962500000000006
20
76.661019326722041
42
0.41421356237309503
10
-74.462499999999991
20
77.161019326722027
10
-87.46250000000002
20
77.161019326722041
42
0.41421356237307422
10
-87.962500000000006
20
76.661019326722041
10
-87.96250000000002
20
63.661019326722027
42
0.414213562373069
10
-87.462500000000034
20
63.161019326722027
0
LWPOLYLINE
5
218
100
AcDbEntity
8
0
100
AcDbPolyline
90
8
70
1
43
0.0
10
-203.05000000000004
20
44.11101932672203
42
0.41421356237307422
10
-202.54999999999998
20
44.61101932672203
10
-202.55000000000001
20
57.611019326722037
42
0.41421356237313145
10
-203.05000000000004
20
58.111019326722023
10
-216.05000000000004
20
58.11101932672203
42
0.4142135623730222
10
-216.55000000000004
20
57.611019326722037
10
-216.55000000000004
20
44.61101932672203
42
0.41421356237312101
10
-216.05000000000004
20
44.111019326722023
0
LWPOLYLINE
5
219
100
AcDbEntity
8
0
100
AcDbPolyline
90
8
70
1
43
0.0
10
-93.512500000000003
20
63.161019326722034
42
0.41421356237310542
10
-93.012499999999989
20
63.661019326722027
10
-93.012499999999989
20
76.661019326722041
42
0.41421356237310025
10
-93.512500000000003
20
77.161019326722027
10
-106.51250000000002
20
77.161019326722041
42
0.41421356237310542
10
-107.01250000000002
20
76.661019326722041
10
-107.01250000000002
20
63.661019326722027
42
0.41421356237310025
10
-106.51250000000002
20
63.161019326722027
0
LWPOLYLINE
5
220
100
AcDbEntity
8
0
100
AcDbPolyline
90
8
70
1
43
0.0
10
-126.85000000000001
20
44.11101932672203
42
0.414213562373069
10
-126.34999999999999
20
44.61101932672203
10
-126.34999999999999
20
57.611019326722037
42
0.4142135623730846
10
-126.85000000000002
20
58.111019326722044
10
-139.84999999999999
20
58.11101932672203
42
0.41421356237308982
10
-140.34999999999999
20
57.611019326722037
10
-140.34999999999999
20
44.61101932672203
42
0.41421356237309503
10
-139.84999999999999
20
44.111019326722023
0
LWPOLYLINE
5
221
100
AcDbEntity
8
0
100
AcDbPolyline
90
8
70
1
43
0.0
10
-107.80000000000001
20
44.11101932672203
42
0.41421356237308982
10
-107.30000000000001
20
44.61101932672203
10
-107.30000000000001
20
57.611019326722037
42
0.41421356237309503
10
-107.80000000000001
20
58.111019326722044
10
-120.8
20
58.11101932672203
42
0.414213562373069
10
-121.29999999999998
20
57.611019326722037
10
-121.30000000000001
20
44.61101932672203
42
0.4142135623730846
10
-120.79999999999998
20
44.111019326722023
0
LWPOLYLINE
5
222
100
AcDbEntity
8
0
100
AcDbPolyline
90
8
70
1
43
0.0
10
-184.00000000000003
20
44.11101932672203
42
0.41421356237307422
10
-183.49999999999997
20
44.61101932672203
10
-183.5
20
57.611019326722037
42
0.41421356237313145
10
-184.00000000000003
20
58.111019326722044
10
-197.00000000000003
20
58.11101932672203
42
0.4142135623730222
10
-197.50000000000003
20
57.611019326722037
10
-197.50000000000003
20
44.61101932672203
42
0.41421356237312101
10
-197.00000000000003
20
44.111019326722023
0
LWPOLYLINE
5
223
100
AcDbEntity
8
0
100
AcDbPolyline
90
8
70
1
43
0.0
10
-50.650000000000006
20
44.11101932672203
42
0.41421356237309503
10
-50.150000000000006
20
44.61101932672203
10
-50.150000000000006
20
57.611019326722037
42
0.41421356237310025
10
-50.650000000000013
20
58.111019326722023
10
-63.650000000000006
20
58.11101932672203
42
0.41421356237309503
10
-64.149999999999991
20
57.611019326722037
10
-64.150000000000006
20
44.61101932672203
42
0.4142135623730846
10
-63.65000000000002
20
44.111019326722023
0
LWPOLYLINE
5
224
100
AcDbEntity
8
0
100
AcDbPolyline
90
8
70
1
43
0.0
10
-222.10000000000002
20
44.11101932672203
42
0.4142135623730222
10
-221.60000000000002
20
44.61101932672203
10
-221.59999999999999
20
57.611019326722037
42
0.41421356237312101
10
-222.10000000000002
20
58.111019326722044
10
-235.10000000000002
20
58.11101932672203
42
0.41421356237307422
10
-235.60000000000002
20
57.611019326722037
10
-235.60000000000002
20
44.61101932672203
42
0.41421356237313145
10
-235.10000000000002
20
44.111019326722023
0
LWPOLYLINE
5
225
100
AcDbEntity
8
0
100
AcDbPolyline
90
8
70
1
43
0.0
10
-241.15000000000003
20
44.11101932672203
42
0.4142135623730222
10
-240.65000000000003
20
44.61101932672203
10
-240.65000000000001
20
57.611019326722037
42
0.41421356237312101
10
-241.15000000000003
20
58.111019326722044
10
-254.15000000000003
20
58.11101932672203
42
0.41421356237307422
10
-254.65000000000003
20
57.611019326722037
10
-254.65000000000003
20
44.61101932672203
42
0.41421356237313145
10
-254.15000000000003
20
44.111019326722023
0
LWPOLYLINE
5
226
100
AcDbEntity
8
0
100
AcDbPolyline
90
8
70
1
43
0.0
10
-282.5625
20
101.26101932672201
42
0.4142135623730846
10
-282.0625
20
101.76101932672202
10
-282.0625
20
114.76101932672202
42
0.4142135623730846
10
-282.5625
20
115.26101932672204
10
-283.5625
20
115.26101932672204
42
0.4142135623730846
10
-284.06250000000006
20
114.76101932672202
10
-284.06250000000006
20
101.76101932672202
42
0.4142135623730846
10
-283.5625
20
101.26101932672202
0
LWPOLYLINE
5
227
100
AcDbEntity
8
0
100
AcDbPolyline
90
8
70
1
43
0.0
10
-226.86250000000001
20
1.2485193267220289
42
0.41421356237302509
10
-226.36250000000004
20
1.7485193267220289
10
-226.36250000000001
20
14.748519326722032
42
0.41421356237312362
10
-226.86250000000001
20
15.248519326722029
10
-239.86250000000001
20
15.248519326722032
42
0.4142135623730781
10
-240.36250000000001
20
14.748519326722032
10
-240.36250000000001
20
1.7485193267220289
42
0.41421356237313295
10
-239.86250000000001
20
1.2485193267220227
0
LWPOLYLINE
5
228
100
AcDbEntity
8
0
100
AcDbPolyline
90
8
70
1
43
0.0
10
-293.53750000000002
20
44.11101932672203
42
0.4142135623730222
10
-293.03750000000008
20
44.61101932672203
10
-293.03750000000002
20
57.611019326722037
42
0.41421356237312101
10
-293.53750000000002
20
58.111019326722044
10
-306.53750000000002
20
58.11101932672203
42
0.4142135623730222
10
-307.03750000000002
20
57.611019326722037
10
-307.03750000000002
20
44.61101932672203
42
0.41421356237312101
10
-306.53750000000002
20
44.111019326722023
0
LWPOLYLINE
5
229
100
AcDbEntity
8
0
100
AcDbPolyline
90
8
70
1
43
0.0
10
-3.0249999999999999
20
25.061019326722036
42
0.4142135623730957
10
-2.5250000000000004
20
25.561019326722032
10
-2.5249999999999999
20
38.561019326722025
42
0.41421356237310708
10
-3.0250000000000199
20
39.06101932672204
10
-16.024999999999999
20
39.061019326722025
42
0.4142135623730846
10
-16.524999999999999
20
38.56101932672204
10
-16.525000000000002
20
25.561019326722032
42
0.41421356237310025
10
-16.024999999999991
20
25.061019326722032
0
LWPOLYLINE
5
230
100
AcDbEntity
8
0
100
AcDbPolyline
90
8
70
1
43
0.0
10
-3.0249999999999999
20
1.2485193267220289
42
0.41421356237309459
10
-2.5250000000000004
20
1.7485193267220289
10
-2.5249999999999999
20
14.748519326722032
42
0.41421356237310641
10
-3.0250000000000199
20
15.248519326722029
10
-16.024999999999999
20
15.248519326722032
42
0.41421356237309243
10
-16.524999999999999
20
14.748519326722032
10
-16.525000000000002
20
1.7485193267220289
42
0.41421356237309825
10
-16.024999999999991
20
1.2485193267220287
0
CIRCLE
5
231
100
AcDbEntity
8
0
100
AcDbCircle
10
-116.68125000000002
20
-4.5014806732779773
30
0
40
1.4000000000000057
210
0
220
-0
230
1
0
LWPOLYLINE
5
232
100
AcDbEntity
8
0
100
AcDbPolyline
90
8
70
1
43
0.0
10
-5.4062499999999858
20
63.161019326722041
10
-23.168749999999996
20
63.161019326722041
42
-0.41421356237310025
10
-23.668749999999999
20
63.661019326722027
10
-23.668750000000003
20
76.661019326722041
42
-0.41421356237309764
10
-23.168749999999999
20
77.161019326722041
10
-5.4062499999999858
20
77.161019326722041
42
-0.41421356237308854
10
-4.90625
20
76.661019326722041
10
-4.9062500000000062
20
63.661019326722027
42
-0.41421356237308915
0
LWPOLYLINE
5
233
100
AcDbEntity
8
0
100
AcDbPolyline
90
8
70
1
43
0.0
10
-55.412500000000009
20
101.24852201563657
42
0.41421356237307422
10
-54.912500000000001
20
101.74852201563658
10
-54.912500000000009
20
114.74852201563657
42
0.41421356237309503
10
-55.412500000000016
20
115.24852201563658
10
-68.412499999999994
20
115.24852201563658
42
0.41421356237309503
10
-68.912499999999994
20
114.74852201563657
10
-68.912499999999994
20
101.74852201563658
42
0.41421356237310542
10
-68.412499999999994
20
101.24852201563657
0
LWPOLYLINE
5
234
100
AcDbEntity
8
0
100
AcDbPolyline
90
8
70
1
43
0.0
10
-293.53750000000002
20
101.26101932672201
42
0.4142135623730846
10
-293.03750000000002
20
101.76101932672202
10
-293.03750000000002
20
114.76101932672202
42
0.4142135623730846
10
-293.53750000000002
20
115.26101932672204
10
-306.53750000000002
20
115.26101932672204
42
0.4142135623730846
10
-307.03750000000002
20
114.76101932672202
10
-307.03750000000002
20
101.76101932672202
42
0.4142135623730846
10
-306.53750000000002
20
101.26101932672202
0
CIRCLE
5
235
100
AcDbEntity
8
0
100
AcDbCircle
10
-309.23000000000002
20
121.01101932672202
30
0
40
1.4000000000000057
210
0
220
-0
230
1
0
CIRCLE
5
236
100
AcDbEntity
8
0
100
AcDbCircle
10
-21.431250000000013
20
-4.5014806732779702
30
0
40
1.3999999999999968
210
0
220
-0
230
1
0
LWPOLYLINE
5
237
100
AcDbEntity
8
0
100
AcDbPolyline
90
8
70
1
43
0.0
10
-25.387500000000003
20
44.11101932672203
42
0.41421356237309503
10
-24.887500000000003
20
44.61101932672203
10
-24.887500000000003
20
57.611019326722037
42
0.41421356237309503
10
-25.387500000000003
20
58.111019326722023
10
-26.387499999999999
20
58.11101932672203
42
0.41421356237309503
10
-26.887499999999989
20
57.611019326722037
10
-26.887499999999996
20
44.61101932672203
42
0.4142135623730846
10
-26.387500000000017
20
44.111019326722023
0
LWPOLYLINE
5
238
100
AcDbEntity
8
0
100
AcDbPolyline
90
8
70
1
43
0.0
10
-278.46250000000003
20
101.76101932672202
42
0.4142135623730846
10
-277.96249999999998
20
101.26101932672202
10
-264.96249999999998
20
101.26101932672201
42
0.41421356237309503
10
-264.46249999999998
20
101.76101932672202
10
-264.46249999999998
20
114.76101932672202
42
0.41421356237309503
10
-264.96249999999998
20
115.26101932672204
10
-277.96249999999998
20
115.26101932672204
42
0.4142135623730846
10
-278.46250000000003
20
114.76101932672202
0
LWPOLYLINE
5
239
100
AcDbEntity
8
0
100
AcDbPolyline
90
8
70
1
43
0.0
10
-7.7875000000000005
20
44.11101932672203
42
0.41421356237309503
10
-7.2875000000000023
20
44.61101932672203
10
-7.2874999999999996
20
57.611019326722037
42
0.41421356237308593
10
-7.7874999999999872
20
58.111019326722023
10
-20.787500000000001
20
58.11101932672203
42
0.41421356237309503
10
-21.287500000000001
20
57.611019326722037
10
-21.287500000000001
20
44.61101932672203
42
0.41421356237310025
10
-20.787499999999994
20
44.111019326722023
0
LWPOLYLINE
5
240
100
AcDbEntity
8
0
100
AcDbPolyline
90
8
70
1
43
0.0
10
-259.36250000000001
20
101.26101932672201
42
0.4142135623730846
10
-258.86249999999995
20
101.76101932672202
10
-258.86250000000001
20
114.76101932672202
42
0.4142135623730846
10
-259.36250000000001
20
115.26101932672204
10
-260.36250000000001
20
115.26101932672204
42
0.4142135623730846
10
-260.86250000000001
20
114.76101932672202
10
-260.86250000000001
20
101.76101932672202
42
0.4142135623730846
10
-260.36250000000001
20
101.26101932672202
0
LWPOLYLINE
5
241
100
AcDbEntity
8
0
100
AcDbPolyline
90
8
70
1
43
0.0
10
-82.22499999999998
20
113.76101932672201
42
0.4142135623730534
10
-82.724999999999994
20
114.26101932672202
10
-88.725000000000009
20
114.26101932672202
42
0.4142135623730534
10
-89.224999999999994
20
113.76101932672201
10
-89.225000000000009
20
99.761019326722007
42
0.41421356237306384
10
-88.725000000000023
20
99.261019326721993
10
-82.724999999999994
20
99.261019326721993
42
0.41421356237307422
10
-82.224999999999994
20
99.761019326722007
0
LWPOLYLINE
5
242
100
AcDbEntity
8
0
100
AcDbPolyline
90
8
70
1
43
0.0
10
-312.58749999999998
20
82.21101932672201
42
0.41421356237310542
10
-312.08750000000003
20
82.711019326722024
10
-312.08749999999998
20
95.711019326722052
42
0.4142135623730846
10
-312.58749999999998
20
96.211019326722024
10
-325.58749999999998
20
96.211019326722052
42
0.41421356237313667
10
-326.08749999999992
20
95.711019326722052
10
-326.08749999999992
20
82.711019326722024
42
0.4142135623730222
10
-325.58749999999998
20
82.211019326722052
0
CIRCLE
5
243
100
AcDbEntity
8
0
100
AcDbCircle
10
-231.125
20
121.01101932672205
30
0
40
1.4000000000000057
210
0
220
-0
230
1
0
LWPOLYLINE
5
244
100
AcDbEntity
8
0
100
AcDbPolyline
90
8
70
1
43
0.0
10
-331.63749999999999
20
101.26101932672201
42
0.41421356237313667
10
-331.13749999999993
20
101.76101932672202
10
-331.13750000000005
20
114.76101932672202
42
0.4142135623730222
10
-331.63749999999999
20
115.26101932672199
10
-344.63749999999999
20
115.26101932672204
42
0.41421356237313667
10
-345.13749999999993
20
114.76101932672202
10
-345.13749999999993
20
101.76101932672202
42
0.4142135623730222
10
-344.63749999999999
20
101.26101932672202
0
CIRCLE
5
245
100
AcDbEntity
8
0
100
AcDbCircle
10
-230.98124999999999
20
-4.5014806732779169
30
0
40
1.4000000000000057
210
0
220
-0
230
1
0
CIRCLE
5
246
100
AcDbEntity
8
0
100
AcDbCircle
10
-54.912500000000009
20
121.01101932672202
30
0
40
1.3999999999999968
210
0
220
-0
230
1
0
LWPOLYLINE
5
247
100
AcDbEntity
8
0
100
AcDbPolyline
90
8
70
1
43
0.0
10
-26.837499999999999
20
1.2485193267220289
42
0.41421356237309537
10
-26.337499999999999
20
1.7485193267220289
10
-26.337499999999999
20
14.748519326722032
42
0.41421356237309631
10
-26.837499999999999
20
15.248519326722029
10
-39.837499999999999
20
15.248519326722032
42
0.41421356237310414
10
-40.337500000000013
20
14.748519326722032
10
-40.337500000000006
20
1.7485193267220289
42
0.41421356237310153
10
-39.837500000000006
20
1.2485193267220287
0
LWPOLYLINE
5
248
100
AcDbEntity
8
0
100
AcDbPolyline
90
8
70
1
43
0.0
10
-45.387500000000003
20
14.748519326722032
10
-45.387500000000003
20
1.7485193267220289
42
-0.41421356237309426
10
-45.887500000000003
20
1.2485193267220289
10
-58.887500000000017
20
1.2485193267220318
42
-0.41421356237308915
10
-59.387500000000003
20
1.7485193267220289
10
-59.387500000000003
20
14.748519326722032
42
-0.4142135623730937
10
-58.88750000000001
20
15.248519326722032
10
-45.88750000000001
20
15.248519326722029
42
-0.41421356237310025
0
LWPOLYLINE
5
249
100
AcDbEntity
8
0
100
AcDbPolyline
90
8
70
1
43
0.0
10
-164.95000000000002
20
1.2485193267220289
42
0.41421356237307716
10
-164.44999999999996
20
1.7485193267220289
10
-164.44999999999999
20
14.748519326722032
42
0.41421356237313406
10
-164.95000000000002
20
15.24851932672204
10
-177.94999999999999
20
15.248519326722032
42
0.4142135623730781
10
-178.44999999999999
20
14.748519326722032
10
-178.44999999999999
20
1.7485193267220289
42
0.41421356237313295
10
-177.94999999999999
20
1.2485193267220287
0
LWPOLYLINE
5
250
100
AcDbEntity
8
0
100
AcDbPolyline
90
8
70
1
43
0.0
10
-45.099999999999994
20
44.61101932672203
42
0.41421356237309503
10
-44.600000000000001
20
44.11101932672203
10
-31.600000000000001
20
44.11101932672203
42
0.41421356237309503
10
-31.099999999999994
20
44.61101932672203
10
-31.100000000000001
20
57.611019326722037
42
0.41421356237309503
10
-31.600000000000001
20
58.111019326722023
10
-44.600000000000001
20
58.11101932672203
42
0.41421356237309503
10
-45.09999999999998
20
57.611019326722037
0
LWPOLYLINE
5
251
100
AcDbEntity
8
0
100
AcDbPolyline
90
8
70
1
43
0.0
10
-83.987499999999997
20
1.2485193267220289
42
0.41421356237310542
10
-83.487499999999969
20
1.7485193267220289
10
-83.487499999999983
20
14.748519326722032
42
0.41421356237309631
10
-83.987499999999997
20
15.24851932672204
10
-96.987500000000011
20
15.248519326722032
42
0.41421356237310675
10
-97.487500000000011
20
14.748519326722032
10
-97.487500000000011
20
1.7485193267220289
42
0.41421356237309437
10
-96.987500000000011
20
1.2485193267220287
0
LWPOLYLINE
5
252
100
AcDbEntity
8
0
100
AcDbPolyline
90
8
70
1
43
0.0
10
-326.08749999999992
20
1.7485193267220289
42
0.41421356237301948
10
-325.58749999999998
20
1.2485193267220442
10
-312.58749999999998
20
1.2485193267220289
42
0.41421356237302509
10
-312.08749999999998
20
1.7485193267220289
10
-312.08749999999998
20
14.748519326722032
42
0.41421356237312362
10
-312.58749999999998
20
15.24851932672204
10
-325.58749999999998
20
15.248519326722032
42
0.4142135623731939
10
-326.08749999999992
20
14.748519326722032
0
LWPOLYLINE
5
253
100
AcDbEntity
8
0
100
AcDbPolyline
90
8
70
1
43
0.0
10
-126.85000000000001
20
1.2485193267220289
42
0.41421356237307422
10
-126.34999999999999
20
1.7485193267220289
10
-126.34999999999999
20
14.748519326722032
42
0.41421356237308593
10
-126.85000000000002
20
15.24851932672204
10
-139.84999999999999
20
15.248519326722032
42
0.41421356237310675
10
-140.34999999999999
20
14.748519326722032
10
-140.34999999999999
20
1.7485193267220289
42
0.41421356237309437
10
-139.84999999999999
20
1.2485193267220227
0
LWPOLYLINE
5
254
100
AcDbEntity
8
0
100
AcDbPolyline
90
8
70
1
43
0.0
10
-207.8125
20
1.2485193267220289
42
0.41421356237302509
10
-207.31250000000003
20
1.7485193267220289
10
-207.3125
20
14.748519326722032
42
0.41421356237312362
10
-207.8125
20
15.24851932672204
10
-220.8125
20
15.248519326722032
42
0.4142135623730781
10
-221.3125
20
14.748519326722032
10
-221.3125
20
1.7485193267220289
42
0.41421356237313295
10
-220.8125
20
1.2485193267220227
0
LWPOLYLINE
5
255
100
AcDbEntity
8
0
100
AcDbPolyline
90
8
70
1
43
0.0
10
-293.53750000000002
20
1.2485193267220289
42
0.41421356237302509
10
-293.03750000000008
20
1.7485193267220289
10
-293.03750000000002
20
14.748519326722032
42
0.41421356237312362
10
-293.53750000000002
20
15.248519326722029
10
-306.53750000000002
20
15.248519326722032
42
0.41421356237304691
10
-307.03750000000002
20
14.748519326722032
10
-307.03750000000002
20
1.7485193267220289
42
0.41421356237310175
10
-306.53750000000002
20
1.2485193267220227
0
LWPOLYLINE
5
256
100
AcDbEntity
8
0
100
AcDbPolyline
90
8
70
1
43
0.0
10
-64.437500000000014
20
14.748519326722032
10
-64.4375
20
1.7485193267220289
42
-0.41421356237309687
10
-64.9375
20
1.2485193267220289
10
-77.9375
20
1.2485193267220318
42
-0.41421356237309959
10
-78.4375
20
1.7485193267220289
10
-78.4375
20
14.748519326722032
42
-0.4142135623730937
10
-77.9375
20
15.248519326722032
10
-64.937499999999986
20
15.248519326722025
42
-0.41421356237308721
0
LWPOLYLINE
5
257
100
AcDbEntity
8
0
100
AcDbPolyline
90
8
70
1
43
0.0
10
-145.90000000000001
20
44.11101932672203
42
0.414213562373069
10
-145.40000000000001
20
44.61101932672203
10
-145.40000000000001
20
57.611019326722037
42
0.4142135623730846
10
-145.90000000000003
20
58.111019326722023
10
-158.90000000000001
20
58.11101932672203
42
0.41421356237308982
10
-159.40000000000001
20
57.611019326722037
10
-159.40000000000001
20
44.61101932672203
42
0.41421356237309503
10
-158.90000000000001
20
44.111019326722023
0
LWPOLYLINE
5
258
100
AcDbEntity
8
0
100
AcDbPolyline
90
8
70
1
43
0.0
10
-107.80000000000001
20
1.2485193267220289
42
0.41421356237310542
10
-107.29999999999998
20
1.7485193267220289
10
-107.30000000000001
20
14.748519326722032
42
0.41421356237309631
10
-107.80000000000001
20
15.248519326722029
10
-120.8
20
15.248519326722032
42
0.41421356237307549
10
-121.30000000000003
20
14.748519326722032
10
-121.30000000000001
20
1.7485193267220289
42
0.41421356237308399
10
-120.79999999999998
20
1.2485193267220287
0
LWPOLYLINE
5
259
100
AcDbEntity
8
0
100
AcDbPolyline
90
8
70
1
43
0.0
10
-145.90000000000001
20
1.2485193267220289
42
0.41421356237307422
10
-145.40000000000001
20
1.7485193267220289
10
-145.40000000000001
20
14.748519326722032
42
0.41421356237308593
10
-145.90000000000003
20
15.24851932672204
10
-158.90000000000001
20
15.248519326722032
42
0.41421356237310675
10
-159.40000000000001
20
14.748519326722032
10
-159.40000000000001
20
1.7485193267220289
42
0.41421356237309437
10
-158.90000000000001
20
1.2485193267220227
0
LWPOLYLINE
5
260
100
AcDbEntity
8
0
100
AcDbPolyline
90
8
70
1
43
0.0
10
-217.33750000000001
20
101.26101932672201
42
0.4142135623730846
10
-216.83749999999998
20
101.76101932672202
10
-216.83750000000001
20
114.76101932672202
42
0.4142135623730846
10
-217.33750000000001
20
115.26101932672204
10
-230.33750000000001
20
115.26101932672204
42
0.41421356237309503
10
-230.83750000000003
20
114.76101932672202
10
-230.83750000000003
20
101.76101932672202
42
0.41421356237309503
10
-230.33750000000001
20
101.26101932672202
0
LWPOLYLINE
5
261
100
AcDbEntity
8
0
100
AcDbPolyline
90
8
70
1
43
0.0
10
-269.72500000000002
20
1.2485193267220289
42
0.41421356237302509
10
-269.22500000000008
20
1.7485193267220289
10
-269.22500000000002
20
14.748519326722032
42
0.41421356237312362
10
-269.72500000000002
20
15.248519326722029
10
-282.72500000000002
20
15.248519326722032
42
0.4142135623730781
10
-283.22500000000002
20
14.748519326722032
10
-283.22500000000002
20
1.7485193267220289
42
0.41421356237313295
10
-282.72500000000002
20
1.2485193267220287
0
LWPOLYLINE
5
262
100
AcDbEntity
8
0
100
AcDbPolyline
90
8
70
1
43
0.0
10
-28.431250000000006
20
82.711019326722024
10
-28.431250000000002
20
95.711019326722052
42
-0.41421356237307161
10
-27.931249999999999
20
96.211019326722052
10
-14.931249999999991
20
96.211019326722038
42
-0.41421356237307033
10
-14.43125
20
95.711019326722052
10
-14.431249999999991
20
82.711019326722024
42
-0.41421356237309631
10
-14.93125
20
82.21101932672201
10
-27.931249999999999
20
82.211019326721996
42
-0.41421356237310542
0
LWPOLYLINE
5
263
100
AcDbEntity
8
0
100
AcDbPolyline
90
8
70
1
43
0.0
10
-259.69999999999999
20
38.56101932672204
10
-259.69999999999993
20
25.561019326722032
42
-0.41421356237307683
10
-260.19999999999999
20
25.061019326722036
10
-273.19999999999999
20
25.061019326722018
42
-0.41421356237310025
10
-273.69999999999999
20
25.561019326722032
10
-273.70000000000005
20
38.56101932672204
42
-0.41421356237311063
10
-273.19999999999999
20
39.061019326722025
10
-260.19999999999999
20
39.061019326722018
42
-0.41421356237312101
0
ENDSEC
0
SECTION
2
OBJECTS
0
DICTIONARY
5
C
100
AcDbDictionary
3
ACAD_GROUP
350
D
3
ACAD_MLINESTYLE
350
17
0
DICTIONARY
5
D
100
AcDbDictionary
0
DICTIONARY
5
1A
330
C
100
AcDbDictionary
0
DICTIONARY
5
17
100
AcDbDictionary
0
ENDSEC
0
EOF
